<svg id="Capa_1" enable-background="new 0 0 512 512" height="512" viewBox="0 0 512 512" width="512" xmlns="http://www.w3.org/2000/svg"><g><circle cx="256" cy="256" fill="#ff4e51" r="256"/><g><path d="m509.646 290.729-43.751-43.751-93.76-7.195-97.735-90.913-111.543 41.867-140.68 133.875 182.175 182.175c16.682 3.418 33.956 5.213 51.648 5.213 129.604 0 236.696-96.315 253.646-221.271z" fill="#f72553"/></g><g><path d="m282.472 146.884 74.897 70.003c4.411 4.123 4.645 11.041.522 15.453-4.123 4.411-11.041 4.645-15.453.522-.296-.277-.579-.575-.837-.875l-64.323-75.083-2.878-8.034c1.383-1.185 5.912-3.204 5.912-3.204.788.222 1.532.629 2.16 1.218z" fill="#7ed7f5"/><g><path d="m100.606 220.108 47.153 19.675 44.865-19.675c0-37.092 38.299-52.88 63.375-59.243l10-7.598-10-6.809c-120.415 7.945-155.393 73.65-155.393 73.65z" fill="#5a5a5a"/><path d="m280.311 145.67c-8.469 0-16.563.278-24.311.789v14.406c12.205-3.097 21.278-3.961 21.278-3.961z" fill="#32393f"/></g><g><path d="m100.606 220.108-46.215 6.633c-6.602.948-11.673 6.332-12.225 12.979l-1.232 14.854 9.094 10.916-10.906 10.916-2.391 28.819v8.471h219.269l10-46.78-10-46.808z" fill="#ffd17e"/><path d="m467.125 266.916-4.216-21.725-103.17-25.083h-103.739v93.588h219.268z" fill="#ffb739"/></g><path d="m75.318 276.407h-36.195l1.811-21.833h34.384z" fill="#ff9e00"/><path d="m467.125 266.916h-24.759c-6.029 0-10.916-4.887-10.916-10.916 0-6.029 4.887-10.916 10.916-10.916h19.478c2.917 0 5.281 2.364 5.281 5.281z" fill="#e3eaee"/><path d="m331.49 235.108h-41.152v-8.168c0-12.058 9.775-21.832 21.832-21.832h19.319v30z" fill="#ffd17e"/><g><path d="m22.177 302.78v21.832h233.823l10-10.916-10-10.916z" fill="#dddde1"/><path d="m256 302.78h232.27v21.832h-232.27z" fill="#b8b8be"/></g><g><circle cx="96.477" cy="328.28" fill="#5a5a5a" r="38.25"/><circle cx="96.477" cy="328.28" fill="#9f9fa5" r="20.435"/></g><g><circle cx="409.537" cy="328.28" fill="#32393f" r="38.25"/><circle cx="409.537" cy="328.28" fill="#7c8186" r="20.435"/></g></g></g></svg>