<svg xmlns="http://www.w3.org/2000/svg" width="23.817" height="23.023" viewBox="0 0 23.817 23.023">
    <defs>
        <style>
            .cls-1{fill:#5685ee}
        </style>
    </defs>
    <g id="restaurant">
        <path id="Path_37" d="M22.315 13.555a.441.441 0 0 1 .275-.445 5.551 5.551 0 0 0 3.7-5.486C26.289 4.185 24.1 0 20.882 0s-5.407 4.192-5.407 7.622a5.564 5.564 0 0 0 3.557 5.426.676.676 0 0 1 .4.674c-.435 5.075-.7 8.2-.773 9.058a.224.224 0 0 0 .224.243h4a.224.224 0 0 0 .224-.244z" class="cls-1" transform="translate(-15.475)"/>
        <path id="Path_38" d="M288.771 1.743a.673.673 0 0 0-1.346 0V9.1h1.346z" class="cls-1" transform="translate(-273.906 -1.022)"/>
        <path id="Path_39" d="M348.871.673a.673.673 0 0 0-1.346 0v7.405h1.346z" class="cls-1" transform="translate(-331.019)"/>
        <path id="Path_40" d="M408.871.673a.673.673 0 0 0-1.346 0v7.405h1.346z" class="cls-1" transform="translate(-387.746)"/>
        <path id="Path_41" d="M291.312 213.66a.671.671 0 0 1 .4.674c-.18 2.1-.493 5.762-.766 8.977a.224.224 0 0 0 .224.243h4a.224.224 0 0 0 .224-.244l-.769-8.976a.672.672 0 0 1 .4-.675 4.723 4.723 0 0 0 2.809-3.66h-9.332a4.72 4.72 0 0 0 2.81 3.661z" class="cls-1" transform="translate(-274.068 -200.576)"/>
        <path id="Path_42" d="M468.2 1.07a.673.673 0 0 0-.673.673V9.1h1.346V1.743a.673.673 0 0 0-.673-.673z" class="cls-1" transform="translate(-445.054 -1.022)"/>
    </g>
</svg>
