<svg xmlns="http://www.w3.org/2000/svg" width="26.598" height="26.598" viewBox="0 0 26.598 26.598">
    <path fill="none" d="M0 0h26.6v26.6H0z"/>
    <path fill="#29b278" d="M17.994 12.149l-1.174-1.175-5.408 5.408-2.35-2.349-1.175 1.175 3.524 3.524 6.583-6.583zm2.737-8.932h-1.107V1h-2.217v2.216H8.541V1H6.325v2.216H5.216a2.206 2.206 0 0 0-2.205 2.217L3 20.948a2.216 2.216 0 0 0 2.216 2.216h15.516a2.223 2.223 0 0 0 2.216-2.216V5.433a2.223 2.223 0 0 0-2.216-2.217zm0 17.732H5.216V8.758h15.516z" transform="translate(.325 .108)"/>
</svg>
