<svg xmlns="http://www.w3.org/2000/svg" width="24" height="24" viewBox="0 0 24 24">
    <path fill="none" d="M0 0h23.99v24H0z"/>
    <path fill="#f85e6f" d="M6.5 5.5L12 11l7-7-1-1-6 6-4.5-4.5H11V3H5v6h1.5zm17.2 11.17a17 17 0 0 0-23.41 0 1.014 1.014 0 0 0 0 1.42l2.479 2.48a1 1 0 0 0 .71.29 1.025 1.025 0 0 0 .7-.28 11.414 11.414 0 0 1 2.659-1.85 1 1 0 0 0 .56-.9v-3.1A14.612 14.612 0 0 1 12 14a14.9 14.9 0 0 1 4.6.72v3.1a1.008 1.008 0 0 0 .56.9 11.783 11.783 0 0 1 2.669 1.85.981.981 0 0 0 .7.28 1 1 0 0 0 .71-.29l2.479-2.48a1 1 0 0 0 .29-.71.982.982 0 0 0-.3-.7z"/>
</svg>
